<svg width="1390" height="90" viewBox="0 0 1390 90" fill="none" xmlns="http://www.w3.org/2000/svg">
<rect width="1390" height="90" fill="#3B3B3B"/>
<g clip-path="url(#clip0_3_51)">
<rect width="1440" height="7248" transform="translate(-50 -2300)" fill="white"/>
<path d="M45.7396 66.9401C45.7396 66.0798 44.8632 65.3519 43.8272 65.3519C42.7913 65.3519 41.9148 66.0798 41.9148 66.9401C41.9148 67.8004 42.7913 68.5284 43.8272 68.5284C44.8632 68.5284 45.7396 67.8004 45.7396 66.9401Z" fill="#4C6071"/>
<path d="M91.7979 66.9401C91.7979 63.8298 88.7698 61.3151 85.0246 61.3151C81.2794 61.3151 78.2513 63.8298 78.2513 66.9401C78.2513 70.0504 81.2794 72.5651 85.0246 72.5651C88.7698 72.5651 91.7979 70.0504 91.7979 66.9401Z" fill="#4C6071"/>
<path d="M131.322 66.94C131.322 64.5577 129.011 62.6385 126.142 62.6385C123.274 62.6385 120.963 64.5577 120.963 66.94C120.963 69.3224 123.274 71.2415 126.142 71.2415C129.011 71.2415 131.322 69.3224 131.322 66.94Z" fill="#4C6071"/>
<path d="M174.193 66.9401C174.193 63.7636 171.085 61.1827 167.26 61.1827C163.435 61.1827 160.327 63.7636 160.327 66.9401C160.327 70.1165 163.435 72.6974 167.26 72.6974C171.085 72.6974 174.193 70.1165 174.193 66.9401Z" fill="#4C6071"/>
<path d="M213.318 66.9401C213.318 64.6901 211.087 62.8372 208.378 62.8372C205.669 62.8372 203.437 64.6901 203.437 66.9401C203.437 69.1901 205.669 71.043 208.378 71.043C211.167 70.9768 213.318 69.1901 213.318 66.9401Z" fill="#4C6071"/>
<path d="M253.241 66.9401C253.241 65.2857 251.567 63.896 249.575 63.896C247.583 63.896 245.91 65.2857 245.91 66.9401C245.91 68.5945 247.583 69.9842 249.575 69.9842C251.567 69.9842 253.241 68.5945 253.241 66.9401Z" fill="#4C6071"/>
<path d="M298.422 66.9401C298.422 63.3666 294.916 60.521 290.693 60.521C286.39 60.521 282.963 63.4327 282.963 66.9401C282.963 70.5136 286.469 73.3592 290.693 73.3592C294.996 73.3592 298.422 70.4474 298.422 66.9401Z" fill="#4C6071"/>
<path d="M333.165 66.94C333.165 66.3444 332.607 65.8812 331.89 65.8812C331.173 65.8812 330.615 66.3444 330.615 66.94C330.615 67.5356 331.173 67.9989 331.89 67.9989C332.607 67.9989 333.165 67.5356 333.165 66.94Z" fill="#4C6071"/>
<path d="M379.702 66.9401C379.702 63.8299 376.674 61.3813 373.008 61.3813C369.263 61.3813 366.314 63.896 366.314 66.9401C366.314 70.0504 369.343 72.499 373.008 72.499C376.674 72.499 379.702 69.9843 379.702 66.9401Z" fill="#4C6071"/>
<path d="M416.516 66.9401C416.516 65.8151 415.481 64.9548 414.126 64.9548C412.771 64.9548 411.735 65.8151 411.735 66.9401C411.735 68.0651 412.771 68.9254 414.126 68.9254C415.481 68.9254 416.516 67.999 416.516 66.9401Z" fill="#4C6071"/>
<path d="M461.459 66.9402C461.459 64.0946 458.67 61.8446 455.323 61.8446C451.897 61.8446 449.188 64.1607 449.188 66.9402C449.188 69.7857 451.976 72.0358 455.323 72.0358C458.67 72.0358 461.459 69.7857 461.459 66.9402Z" fill="#4C6071"/>
<path d="M501.461 66.9402C501.461 64.624 499.15 62.705 496.361 62.705C493.572 62.705 491.261 64.5579 491.261 66.9402C491.261 69.2564 493.493 71.1755 496.361 71.1755C499.23 71.1094 501.461 69.2564 501.461 66.9402Z" fill="#4C6071"/>
<path d="M539.232 66.9401C539.232 66.2122 538.515 65.6166 537.639 65.6166C536.762 65.6166 536.045 66.2122 536.045 66.9401C536.045 67.668 536.762 68.2636 537.639 68.2636C538.515 68.2636 539.232 67.668 539.232 66.9401Z" fill="#4C6071"/>
<path d="M579.633 66.9401C579.633 66.543 579.234 66.2122 578.756 66.2122C578.278 66.2122 577.88 66.543 577.88 66.9401C577.88 67.3371 578.278 67.668 578.756 67.668C579.234 67.668 579.633 67.3371 579.633 66.9401Z" fill="#4C6071"/>
<path d="M627.205 66.94C627.205 63.565 623.938 60.7856 619.874 60.7856C615.81 60.7856 612.463 63.4989 612.463 66.94C612.463 70.315 615.73 73.0283 619.874 73.0283C623.938 73.0283 627.205 70.315 627.205 66.94Z" fill="#4C6071"/>
<path d="M667.924 66.9401C667.924 63.7636 664.817 61.1827 660.992 61.1827C657.167 61.1827 654.059 63.7636 654.059 66.9401C654.059 70.1165 657.167 72.6974 660.992 72.6974C664.817 72.6312 667.924 70.1165 667.924 66.9401Z" fill="#4C6071"/>
<path d="M708.166 66.94C708.166 64.1606 705.456 61.9106 702.109 61.9106C698.763 61.9106 696.053 64.1606 696.053 66.94C696.053 69.7195 698.763 71.9695 702.109 71.9695C705.456 71.9033 708.166 69.6533 708.166 66.94Z" fill="#4C6071"/>
<path d="M745.618 66.9402C745.618 65.8814 744.582 65.0211 743.307 65.0211C742.032 65.0211 740.996 65.8814 740.996 66.9402C740.996 67.999 742.032 68.8593 743.307 68.8593C744.582 68.7932 745.618 67.9329 745.618 66.9402Z" fill="#4C6071"/>
<path d="M789.923 66.9401C789.923 64.4253 787.453 62.4401 784.504 62.4401C781.476 62.4401 779.086 64.4915 779.086 66.9401C779.086 69.4548 781.556 71.4401 784.504 71.4401C787.453 71.4401 789.923 69.3886 789.923 66.9401Z" fill="#4C6071"/>
<path d="M829.686 66.94C829.686 65.0209 827.853 63.4989 825.542 63.4989C823.231 63.4989 821.399 65.0209 821.399 66.94C821.399 68.8592 823.231 70.3812 825.542 70.3812C827.853 70.3812 829.686 68.793 829.686 66.94Z" fill="#4C6071"/>
<path d="M873.035 66.9401C873.035 64.0945 870.246 61.7783 866.819 61.7783C863.393 61.7783 860.604 64.0945 860.604 66.9401C860.604 69.7857 863.393 72.1019 866.819 72.1019C870.166 72.1019 873.035 69.7857 873.035 66.9401Z" fill="#4C6071"/>
<path d="M909.929 66.9399C909.929 66.0135 908.973 65.2194 907.857 65.2194C906.742 65.2194 905.786 66.0135 905.786 66.9399C905.786 67.8664 906.742 68.6605 907.857 68.6605C909.053 68.6605 909.929 67.8664 909.929 66.9399Z" fill="#4C6071"/>
<path d="M956.545 66.9402C956.545 63.499 953.199 60.7196 949.055 60.7196C944.911 60.7196 941.565 63.499 941.565 66.9402C941.565 70.3813 944.911 73.1608 949.055 73.1608C953.119 73.1608 956.545 70.3813 956.545 66.9402Z" fill="#4C6071"/>
<path d="M991.767 66.9401C991.767 66.2122 991.049 65.6166 990.173 65.6166C989.296 65.6166 988.579 66.2122 988.579 66.9401C988.579 67.668 989.296 68.2636 990.173 68.2636C991.049 68.1975 991.767 67.668 991.767 66.9401Z" fill="#4C6071"/>
<path d="M1033.84 66.9401C1033.84 65.8151 1032.72 64.8225 1031.29 64.8225C1029.94 64.8225 1028.74 65.7489 1028.74 66.9401C1028.74 68.0651 1029.86 68.9916 1031.29 68.9916C1032.72 68.9916 1033.84 68.0651 1033.84 66.9401Z" fill="#4C6071"/>
<path d="M1076.71 66.9401C1076.71 65.021 1074.8 63.4327 1072.49 63.4327C1070.18 63.4327 1068.26 65.021 1068.26 66.9401C1068.26 68.8592 1070.18 70.4475 1072.49 70.4475C1074.8 70.4475 1076.71 68.8592 1076.71 66.9401Z" fill="#4C6071"/>
<path d="M1114.4 66.9401C1114.4 66.543 1114 66.2783 1113.61 66.2783C1113.13 66.2783 1112.81 66.6092 1112.81 66.9401C1112.81 67.3371 1113.21 67.6018 1113.61 67.6018C1114.08 67.6018 1114.4 67.3371 1114.4 66.9401Z" fill="#4C6071"/>
<path d="M1160.86 66.9402C1160.86 64.0946 1158.07 61.8446 1154.72 61.8446C1151.3 61.8446 1148.59 64.1607 1148.59 66.9402C1148.59 69.7857 1151.38 72.0358 1154.72 72.0358C1158.15 72.0358 1160.86 69.7196 1160.86 66.9402Z" fill="#4C6071"/>
<path d="M1203.57 66.9401C1203.57 63.4327 1200.14 60.5872 1195.92 60.5872C1191.7 60.5872 1188.27 63.4327 1188.27 66.9401C1188.27 70.4474 1191.7 73.293 1195.92 73.293C1200.14 73.293 1203.57 70.4474 1203.57 66.9401Z" fill="#4C6071"/>
<path d="M1238.15 66.9401C1238.15 66.4107 1237.68 66.0137 1237.04 66.0137C1236.4 66.0137 1235.92 66.4107 1235.92 66.9401C1235.92 67.4695 1236.4 67.8666 1237.04 67.8666C1237.68 67.8666 1238.15 67.4695 1238.15 66.9401Z" fill="#4C6071"/>
<path d="M1283.73 66.9401C1283.73 64.4253 1281.26 62.3739 1278.24 62.3739C1275.21 62.3739 1272.74 64.4253 1272.74 66.9401C1272.74 69.4548 1275.21 71.5062 1278.24 71.5062C1281.26 71.5062 1283.73 69.4548 1283.73 66.9401Z" fill="#4C6071"/>
<path d="M1326.53 66.94C1326.53 63.6312 1323.34 60.9841 1319.35 60.9841C1315.37 60.9841 1312.18 63.6312 1312.18 66.94C1312.18 70.2488 1315.37 72.8959 1319.35 72.8959C1323.34 72.8959 1326.53 70.2488 1326.53 66.94Z" fill="#4C6071"/>
<path d="M1362.22 66.9401C1362.22 66.146 1361.43 65.4843 1360.47 65.4843C1359.52 65.4843 1358.72 66.146 1358.72 66.9401C1358.72 67.7342 1359.52 68.396 1360.47 68.396C1361.43 68.396 1362.22 67.7342 1362.22 66.9401Z" fill="#4C6071"/>
<path d="M2.70933 90.0001C3.02808 90.0001 3.26713 89.9339 3.50619 89.7353C3.74525 89.5368 3.82495 89.3383 3.82495 89.0736C3.82495 88.8089 3.74525 88.6103 3.50619 88.4118C3.26713 88.2795 3.02808 88.1471 2.70933 88.1471C2.39059 88.1471 2.15154 88.2133 1.91248 88.4118C1.67342 88.6103 1.59381 88.8089 1.59381 89.0736C1.59381 89.3383 1.67342 89.5368 1.91248 89.7353C2.15154 89.9339 2.39059 90.0001 2.70933 90.0001Z" fill="#4C6071"/>
<path d="M49.8833 25.3812C49.8833 22.6018 47.174 20.418 43.8272 20.418C40.4804 20.418 37.8508 22.668 37.8508 25.3812C37.8508 28.1606 40.5601 30.3444 43.8272 30.3444C47.174 30.4106 49.8833 28.1606 49.8833 25.3812Z" fill="#4C6071"/>
<path d="M89.726 25.3814C89.726 23.1975 87.5744 21.4108 84.9448 21.4108C82.3152 21.4108 80.1637 23.1975 80.1637 25.3814C80.1637 27.5652 82.3152 29.3519 84.9448 29.3519C87.6541 29.3519 89.726 27.5652 89.726 25.3814Z" fill="#4C6071"/>
<path d="M132.358 25.3812C132.358 22.5357 129.569 20.2195 126.142 20.2195C122.716 20.2195 119.927 22.5357 119.927 25.3812C119.927 28.2268 122.716 30.543 126.142 30.543C129.569 30.6092 132.358 28.2268 132.358 25.3812Z" fill="#4C6071"/>
<path d="M170.368 25.3813C170.368 23.9916 169.013 22.8004 167.26 22.8004C165.587 22.8004 164.152 23.9254 164.152 25.3813C164.152 26.771 165.507 27.9622 167.26 27.9622C168.933 27.9622 170.368 26.771 170.368 25.3813Z" fill="#4C6071"/>
<path d="M213 25.3813C213 23.2637 210.928 21.6093 208.457 21.6093C205.908 21.6093 203.915 23.3298 203.915 25.3813C203.915 27.499 205.987 29.1534 208.457 29.1534C210.928 29.2196 213 27.499 213 25.3813Z" fill="#4C6071"/>
<path d="M251.249 25.3813C251.249 24.6533 250.531 23.9916 249.575 23.9916C248.619 23.9916 247.902 24.5871 247.902 25.3813C247.902 26.1092 248.619 26.771 249.575 26.771C250.452 26.771 251.249 26.1754 251.249 25.3813Z" fill="#4C6071"/>
<path d="M296.43 25.3813C296.43 22.7342 293.88 20.6166 290.693 20.6166C287.505 20.6166 284.956 22.7342 284.956 25.3813C284.956 28.0283 287.505 30.146 290.693 30.146C293.88 30.146 296.43 28.0283 296.43 25.3813Z" fill="#4C6071"/>
<path d="M339.062 25.3813C339.062 22.0725 335.795 19.3593 331.891 19.3593C327.906 19.3593 324.639 22.0725 324.639 25.3813C324.639 28.6901 327.906 31.3372 331.891 31.3372C335.875 31.4034 339.062 28.6901 339.062 25.3813Z" fill="#4C6071"/>
<path d="M377.789 25.3814C377.789 23.1975 375.638 21.4108 373.008 21.4108C370.379 21.4108 368.227 23.1975 368.227 25.3814C368.227 27.5652 370.379 29.3519 373.008 29.3519C375.638 29.3519 377.789 27.5652 377.789 25.3814Z" fill="#4C6071"/>
<path d="M419.624 25.3812C419.624 22.8665 417.154 20.8151 414.126 20.8151C411.098 20.8151 408.628 22.8665 408.628 25.3812C408.628 27.8959 411.098 29.9474 414.126 29.9474C417.154 29.9474 419.624 27.8959 419.624 25.3812Z" fill="#4C6071"/>
<path d="M460.184 25.3814C460.184 23.1314 457.953 21.3446 455.323 21.3446C452.614 21.3446 450.463 23.1975 450.463 25.3814C450.463 27.6314 452.694 29.4181 455.323 29.4181C458.033 29.4843 460.184 27.6314 460.184 25.3814Z" fill="#4C6071"/>
<path d="M502.178 25.3813C502.178 22.7342 499.628 20.6166 496.441 20.6166C493.254 20.6166 490.704 22.7342 490.704 25.3813C490.704 28.0283 493.254 30.146 496.441 30.146C499.628 30.146 502.178 28.0283 502.178 25.3813Z" fill="#4C6071"/>
<path d="M543.934 25.3813C543.934 22.4695 541.065 20.0872 537.559 20.0872C534.053 20.0872 531.184 22.4695 531.184 25.3813C531.184 28.293 534.053 30.6754 537.559 30.6754C541.065 30.6754 543.934 28.293 543.934 25.3813Z" fill="#4C6071"/>
<path d="M585.29 25.3813C585.29 22.4034 582.342 19.9548 578.756 19.9548C575.17 19.9548 572.222 22.4034 572.222 25.3813C572.222 28.3593 575.17 30.8078 578.756 30.8078C582.342 30.8078 585.29 28.3593 585.29 25.3813Z" fill="#4C6071"/>
<path d="M624.177 25.3812C624.177 23.396 622.265 21.8077 619.874 21.8077C617.483 21.8077 615.571 23.396 615.571 25.3812C615.571 27.3665 617.483 28.9548 619.874 28.9548C622.265 28.9548 624.177 27.3665 624.177 25.3812Z" fill="#4C6071"/>
<path d="M661.868 25.3812C661.868 24.9842 661.47 24.7195 661.071 24.7195C660.593 24.7195 660.274 25.0504 660.274 25.3812C660.274 25.7783 660.673 26.043 661.071 26.043C661.47 26.1092 661.868 25.7783 661.868 25.3812Z" fill="#4C6071"/>
<path d="M704.261 25.3812C704.261 24.4547 703.305 23.6606 702.189 23.6606C701.074 23.6606 700.117 24.4547 700.117 25.3812C700.117 26.3077 701.074 27.1018 702.189 27.1018C703.305 27.1018 704.261 26.3077 704.261 25.3812Z" fill="#4C6071"/>
<path d="M748.407 25.3813C748.407 23.0651 746.096 21.146 743.307 21.146C740.518 21.146 738.207 23.0651 738.207 25.3813C738.207 27.6974 740.518 29.6166 743.307 29.6166C746.096 29.6166 748.407 27.6974 748.407 25.3813Z" fill="#4C6071"/>
<path d="M786.178 25.3813C786.178 24.5871 785.381 23.9916 784.504 23.9916C783.548 23.9916 782.831 24.6533 782.831 25.3813C782.831 26.1754 783.628 26.771 784.504 26.771C785.381 26.8372 786.178 26.1754 786.178 25.3813Z" fill="#4C6071"/>
<path d="M827.933 25.3814C827.933 24.3226 826.897 23.4623 825.622 23.4623C824.347 23.4623 823.311 24.3226 823.311 25.3814C823.311 26.4402 824.347 27.3005 825.622 27.3005C826.897 27.3005 827.933 26.4402 827.933 25.3814Z" fill="#4C6071"/>
<path d="M872.716 25.3812C872.716 22.668 870.007 20.418 866.74 20.418C863.473 20.418 860.763 22.668 860.763 25.3812C860.763 28.0944 863.473 30.3444 866.74 30.3444C870.007 30.3444 872.716 28.0944 872.716 25.3812Z" fill="#4C6071"/>
<path d="M908.734 25.3812C908.734 24.9842 908.336 24.7195 907.937 24.7195C907.459 24.7195 907.14 25.0504 907.14 25.3812C907.14 25.7783 907.539 26.043 907.937 26.043C908.336 26.043 908.734 25.7783 908.734 25.3812Z" fill="#4C6071"/>
<path d="M954.075 25.3813C954.075 23.0651 951.844 21.2122 949.055 21.2122C946.266 21.2122 944.035 23.0651 944.035 25.3813C944.035 27.6974 946.266 29.5504 949.055 29.5504C951.764 29.5504 954.075 27.6974 954.075 25.3813Z" fill="#4C6071"/>
<path d="M991.767 25.3813C991.767 24.6533 991.049 24.0577 990.173 24.0577C989.296 24.0577 988.579 24.6533 988.579 25.3813C988.579 26.1092 989.296 26.7048 990.173 26.7048C991.049 26.7048 991.767 26.1092 991.767 25.3813Z" fill="#4C6071"/>
<path d="M1035.19 25.3814C1035.19 23.5947 1033.44 22.1388 1031.29 22.1388C1029.14 22.1388 1027.39 23.5947 1027.39 25.3814C1027.39 27.1682 1029.14 28.6241 1031.29 28.6241C1033.44 28.6241 1035.19 27.1682 1035.19 25.3814Z" fill="#4C6071"/>
<path d="M1076.87 25.3813C1076.87 23.3298 1074.88 21.6754 1072.41 21.6754C1069.94 21.6754 1067.95 23.3298 1067.95 25.3813C1067.95 27.4327 1069.94 29.0872 1072.41 29.0872C1074.88 29.0872 1076.87 27.4327 1076.87 25.3813Z" fill="#4C6071"/>
<path d="M1118.07 25.3813C1118.07 23.3298 1116.08 21.6754 1113.61 21.6754C1111.14 21.6754 1109.14 23.3298 1109.14 25.3813C1109.14 27.4327 1111.14 29.0872 1113.61 29.0872C1116.08 29.0872 1118.07 27.4327 1118.07 25.3813Z" fill="#4C6071"/>
<path d="M1157.03 25.3814C1157.03 24.3226 1156 23.4623 1154.72 23.4623C1153.45 23.4623 1152.41 24.3226 1152.41 25.3814C1152.41 26.4402 1153.45 27.3005 1154.72 27.3005C1156 27.3005 1157.03 26.4402 1157.03 25.3814Z" fill="#4C6071"/>
<path d="M1202.3 25.3813C1202.3 22.4695 1199.43 20.0872 1195.92 20.0872C1192.41 20.0872 1189.55 22.4695 1189.55 25.3813C1189.55 28.293 1192.41 30.6754 1195.92 30.6754C1199.43 30.6754 1202.3 28.293 1202.3 25.3813Z" fill="#4C6071"/>
<path d="M1239.27 25.3814C1239.27 24.3887 1238.31 23.5284 1237.04 23.5284C1235.84 23.5284 1234.81 24.3887 1234.81 25.3814C1234.81 26.374 1235.84 27.2343 1237.04 27.2343C1238.23 27.2343 1239.27 26.4402 1239.27 25.3814Z" fill="#4C6071"/>
<path d="M1281.26 25.3813C1281.26 23.9916 1279.91 22.8004 1278.16 22.8004C1276.48 22.8004 1275.05 23.9254 1275.05 25.3813C1275.05 26.771 1276.4 27.9622 1278.16 27.9622C1279.91 27.9622 1281.26 26.8372 1281.26 25.3813Z" fill="#4C6071"/>
<path d="M1326.29 25.3813C1326.29 22.2048 1323.18 19.6239 1319.35 19.6239C1315.53 19.6239 1312.42 22.2048 1312.42 25.3813C1312.42 28.5577 1315.53 31.1386 1319.35 31.1386C1323.18 31.1386 1326.29 28.5577 1326.29 25.3813Z" fill="#4C6071"/>
<path d="M1365.41 25.3814C1365.41 23.1314 1363.18 21.2784 1360.47 21.2784C1357.76 21.2784 1355.53 23.1314 1355.53 25.3814C1355.53 27.6314 1357.76 29.4843 1360.47 29.4843C1363.18 29.4843 1365.41 27.6314 1365.41 25.3814Z" fill="#4C6071"/>
<path d="M2.70925 49.8309C3.42642 49.8309 4.14361 49.5662 4.62172 49.1692C5.09984 48.7721 5.41858 48.1765 5.41858 47.5809C5.41858 46.9853 5.09984 46.3898 4.62172 45.9927C4.14361 45.5956 3.42642 45.3309 2.70925 45.3309C1.99208 45.3309 1.27499 45.5956 0.796876 45.9927C0.318762 46.3898 2.00019e-05 46.9853 2.00019e-05 47.5809C2.00019e-05 48.1765 0.318762 48.7721 0.796876 49.1692C1.27499 49.6324 1.99208 49.8309 2.70925 49.8309Z" fill="#4C6071"/>
</g>
<defs>
<clipPath id="clip0_3_51">
<rect width="1440" height="7248" fill="white" transform="translate(-50 -2300)"/>
</clipPath>
</defs>
</svg>
