<svg width="1409" height="100" viewBox="0 0 1409 100" fill="none" xmlns="http://www.w3.org/2000/svg">
<rect width="1409" height="100" fill="#3B3B3B"/>
<g clip-path="url(#clip0_3_51)">
<rect width="1440" height="7248" transform="translate(-8 -2290)" fill="white"/>
<path d="M1401.59 75.4808C1401.91 75.4808 1402.23 75.3338 1402.47 75.1867C1402.71 74.9661 1402.86 74.672 1402.86 74.3778C1402.86 74.0837 1402.71 73.7896 1402.47 73.569C1402.23 73.3484 1401.91 73.2749 1401.59 73.2749C1401.27 73.2749 1400.95 73.422 1400.71 73.569C1400.47 73.7896 1400.39 74.0837 1400.39 74.3778C1400.39 74.672 1400.55 74.9661 1400.71 75.1867C1400.95 75.3338 1401.27 75.4808 1401.59 75.4808Z" fill="#4C6071"/>
<path d="M45.7396 74.378C45.7396 73.4221 44.8632 72.6133 43.8272 72.6133C42.7913 72.6133 41.9148 73.4221 41.9148 74.378C41.9148 75.3338 42.7913 76.1427 43.8272 76.1427C44.8632 76.1427 45.7396 75.3338 45.7396 74.378Z" fill="#4C6071"/>
<path d="M91.7979 74.3778C91.7979 70.9219 88.7698 68.1278 85.0246 68.1278C81.2794 68.1278 78.2513 70.9219 78.2513 74.3778C78.2513 77.8337 81.2794 80.6278 85.0246 80.6278C88.7698 80.6278 91.7979 77.8337 91.7979 74.3778Z" fill="#4C6071"/>
<path d="M131.322 74.3778C131.322 71.7307 129.011 69.5984 126.142 69.5984C123.274 69.5984 120.963 71.7307 120.963 74.3778C120.963 77.0249 123.274 79.1572 126.142 79.1572C129.011 79.1572 131.322 77.0249 131.322 74.3778Z" fill="#4C6071"/>
<path d="M174.193 74.3779C174.193 70.8484 171.085 67.9808 167.26 67.9808C163.435 67.9808 160.327 70.8484 160.327 74.3779C160.327 77.9073 163.435 80.7749 167.26 80.7749C171.085 80.7749 174.193 77.9073 174.193 74.3779Z" fill="#4C6071"/>
<path d="M213.318 74.3779C213.318 71.8779 211.087 69.8191 208.378 69.8191C205.669 69.8191 203.437 71.8779 203.437 74.3779C203.437 76.8779 205.669 78.9367 208.378 78.9367C211.167 78.8632 213.318 76.8779 213.318 74.3779Z" fill="#4C6071"/>
<path d="M253.241 74.3779C253.241 72.5397 251.567 70.9956 249.575 70.9956C247.583 70.9956 245.91 72.5397 245.91 74.3779C245.91 76.2162 247.583 77.7603 249.575 77.7603C251.567 77.7603 253.241 76.2162 253.241 74.3779Z" fill="#4C6071"/>
<path d="M298.422 74.3779C298.422 70.4073 294.916 67.2456 290.693 67.2456C286.39 67.2456 282.963 70.4809 282.963 74.3779C282.963 78.3485 286.469 81.5103 290.693 81.5103C294.996 81.5103 298.422 78.275 298.422 74.3779Z" fill="#4C6071"/>
<path d="M333.165 74.3779C333.165 73.7161 332.607 73.2014 331.89 73.2014C331.173 73.2014 330.615 73.7161 330.615 74.3779C330.615 75.0396 331.173 75.5544 331.89 75.5544C332.607 75.5544 333.165 75.0396 333.165 74.3779Z" fill="#4C6071"/>
<path d="M379.702 74.378C379.702 70.9221 376.674 68.2015 373.008 68.2015C369.263 68.2015 366.314 70.9956 366.314 74.378C366.314 77.8339 369.343 80.5545 373.008 80.5545C376.674 80.5545 379.702 77.7603 379.702 74.378Z" fill="#4C6071"/>
<path d="M416.516 74.3779C416.516 73.1279 415.481 72.172 414.126 72.172C412.771 72.172 411.735 73.1279 411.735 74.3779C411.735 75.6279 412.771 76.5838 414.126 76.5838C415.481 76.5838 416.516 75.5543 416.516 74.3779Z" fill="#4C6071"/>
<path d="M461.459 74.3779C461.459 71.2162 458.67 68.7162 455.323 68.7162C451.897 68.7162 449.188 71.2897 449.188 74.3779C449.188 77.5397 451.976 80.0397 455.323 80.0397C458.67 80.0397 461.459 77.5397 461.459 74.3779Z" fill="#4C6071"/>
<path d="M501.461 74.378C501.461 71.8044 499.15 69.6721 496.361 69.6721C493.572 69.6721 491.261 71.7309 491.261 74.378C491.261 76.9515 493.493 79.0839 496.361 79.0839C499.23 79.0103 501.461 76.9515 501.461 74.378Z" fill="#4C6071"/>
<path d="M539.232 74.3779C539.232 73.5691 538.515 72.9073 537.639 72.9073C536.762 72.9073 536.045 73.5691 536.045 74.3779C536.045 75.1868 536.762 75.8485 537.639 75.8485C538.515 75.8485 539.232 75.1868 539.232 74.3779Z" fill="#4C6071"/>
<path d="M579.633 74.3779C579.633 73.9367 579.234 73.5691 578.756 73.5691C578.278 73.5691 577.88 73.9367 577.88 74.3779C577.88 74.8191 578.278 75.1867 578.756 75.1867C579.234 75.1867 579.633 74.8191 579.633 74.3779Z" fill="#4C6071"/>
<path d="M627.205 74.3778C627.205 70.6278 623.938 67.5396 619.874 67.5396C615.81 67.5396 612.463 70.5542 612.463 74.3778C612.463 78.1278 615.73 81.1425 619.874 81.1425C623.938 81.1425 627.205 78.1278 627.205 74.3778Z" fill="#4C6071"/>
<path d="M667.924 74.3779C667.924 70.8484 664.817 67.9808 660.992 67.9808C657.167 67.9808 654.059 70.8484 654.059 74.3779C654.059 77.9073 657.167 80.7749 660.992 80.7749C664.817 80.7014 667.924 77.9073 667.924 74.3779Z" fill="#4C6071"/>
<path d="M708.166 74.3778C708.166 71.2895 705.456 68.7896 702.109 68.7896C698.763 68.7896 696.053 71.2895 696.053 74.3778C696.053 77.466 698.763 79.966 702.109 79.966C705.456 79.8925 708.166 77.3925 708.166 74.3778Z" fill="#4C6071"/>
<path d="M745.618 74.3781C745.618 73.2016 744.582 72.2457 743.307 72.2457C742.032 72.2457 740.996 73.2016 740.996 74.3781C740.996 75.5545 742.032 76.5104 743.307 76.5104C744.582 76.4369 745.618 75.481 745.618 74.3781Z" fill="#4C6071"/>
<path d="M789.923 74.3778C789.923 71.5837 787.453 69.3778 784.504 69.3778C781.476 69.3778 779.086 71.6572 779.086 74.3778C779.086 77.1719 781.556 79.3778 784.504 79.3778C787.453 79.3778 789.923 77.0984 789.923 74.3778Z" fill="#4C6071"/>
<path d="M829.686 74.3778C829.686 72.2455 827.853 70.5543 825.542 70.5543C823.231 70.5543 821.399 72.2455 821.399 74.3778C821.399 76.5102 823.231 78.2014 825.542 78.2014C827.853 78.2014 829.686 76.4366 829.686 74.3778Z" fill="#4C6071"/>
<path d="M873.035 74.3779C873.035 71.2161 870.246 68.6426 866.819 68.6426C863.393 68.6426 860.604 71.2161 860.604 74.3779C860.604 77.5396 863.393 80.1132 866.819 80.1132C870.166 80.1132 873.035 77.5396 873.035 74.3779Z" fill="#4C6071"/>
<path d="M909.929 74.3777C909.929 73.3483 908.973 72.4659 907.857 72.4659C906.742 72.4659 905.786 73.3483 905.786 74.3777C905.786 75.4071 906.742 76.2895 907.857 76.2895C909.053 76.2895 909.929 75.4071 909.929 74.3777Z" fill="#4C6071"/>
<path d="M956.545 74.3779C956.545 70.5544 953.199 67.4662 949.055 67.4662C944.911 67.4662 941.565 70.5544 941.565 74.3779C941.565 78.2015 944.911 81.2897 949.055 81.2897C953.119 81.2897 956.545 78.2015 956.545 74.3779Z" fill="#4C6071"/>
<path d="M991.767 74.3779C991.767 73.5691 991.049 72.9073 990.173 72.9073C989.296 72.9073 988.579 73.5691 988.579 74.3779C988.579 75.1868 989.296 75.8485 990.173 75.8485C991.049 75.775 991.767 75.1868 991.767 74.3779Z" fill="#4C6071"/>
<path d="M1033.84 74.3779C1033.84 73.1279 1032.72 72.025 1031.29 72.025C1029.94 72.025 1028.74 73.0544 1028.74 74.3779C1028.74 75.6279 1029.86 76.6574 1031.29 76.6574C1032.72 76.6574 1033.84 75.6279 1033.84 74.3779Z" fill="#4C6071"/>
<path d="M1076.71 74.3779C1076.71 72.2455 1074.8 70.4808 1072.49 70.4808C1070.18 70.4808 1068.26 72.2455 1068.26 74.3779C1068.26 76.5102 1070.18 78.275 1072.49 78.275C1074.8 78.275 1076.71 76.5102 1076.71 74.3779Z" fill="#4C6071"/>
<path d="M1114.4 74.3779C1114.4 73.9367 1114 73.6426 1113.61 73.6426C1113.13 73.6426 1112.81 74.0102 1112.81 74.3779C1112.81 74.819 1113.21 75.1132 1113.61 75.1132C1114.08 75.1132 1114.4 74.819 1114.4 74.3779Z" fill="#4C6071"/>
<path d="M1160.86 74.3779C1160.86 71.2162 1158.07 68.7162 1154.72 68.7162C1151.3 68.7162 1148.59 71.2897 1148.59 74.3779C1148.59 77.5397 1151.38 80.0397 1154.72 80.0397C1158.15 80.0397 1160.86 77.4661 1160.86 74.3779Z" fill="#4C6071"/>
<path d="M1203.57 74.3779C1203.57 70.4808 1200.14 67.3191 1195.92 67.3191C1191.7 67.3191 1188.27 70.4808 1188.27 74.3779C1188.27 78.275 1191.7 81.4367 1195.92 81.4367C1200.14 81.4367 1203.57 78.275 1203.57 74.3779Z" fill="#4C6071"/>
<path d="M1238.15 74.3779C1238.15 73.7897 1237.68 73.3485 1237.04 73.3485C1236.4 73.3485 1235.92 73.7897 1235.92 74.3779C1235.92 74.9661 1236.4 75.4073 1237.04 75.4073C1237.68 75.4073 1238.15 74.9661 1238.15 74.3779Z" fill="#4C6071"/>
<path d="M1283.73 74.3778C1283.73 71.5837 1281.26 69.3043 1278.24 69.3043C1275.21 69.3043 1272.74 71.5837 1272.74 74.3778C1272.74 77.1719 1275.21 79.4514 1278.24 79.4514C1281.26 79.4514 1283.73 77.1719 1283.73 74.3778Z" fill="#4C6071"/>
<path d="M1326.53 74.3778C1326.53 70.7013 1323.34 67.7601 1319.35 67.7601C1315.37 67.7601 1312.18 70.7013 1312.18 74.3778C1312.18 78.0542 1315.37 80.9954 1319.35 80.9954C1323.34 80.9954 1326.53 78.0542 1326.53 74.3778Z" fill="#4C6071"/>
<path d="M1362.22 74.3779C1362.22 73.4955 1361.43 72.7603 1360.47 72.7603C1359.52 72.7603 1358.72 73.4955 1358.72 74.3779C1358.72 75.2602 1359.52 75.9955 1360.47 75.9955C1361.43 75.9955 1362.22 75.2602 1362.22 74.3779Z" fill="#4C6071"/>
<path d="M2.70933 100C3.02808 100 3.26713 99.9265 3.50619 99.7059C3.74525 99.4853 3.82495 99.2647 3.82495 98.9706C3.82495 98.6765 3.74525 98.4559 3.50619 98.2353C3.26713 98.0882 3.02808 97.9412 2.70933 97.9412C2.39059 97.9412 2.15154 98.0147 1.91248 98.2353C1.67342 98.4559 1.59381 98.6765 1.59381 98.9706C1.59381 99.2647 1.67342 99.4853 1.91248 99.7059C2.15154 99.9265 2.39059 100 2.70933 100Z" fill="#4C6071"/>
<path d="M1401.59 32.5397C1402.86 32.5397 1404.06 32.0986 1404.94 31.2897C1405.81 30.4809 1406.29 29.378 1406.29 28.2015C1406.29 27.025 1405.81 25.9221 1404.94 25.1132C1404.06 24.3044 1402.86 23.8633 1401.59 23.8633C1400.31 23.8633 1399.12 24.3044 1398.24 25.1132C1397.37 25.9221 1396.89 27.025 1396.89 28.2015C1396.89 29.378 1397.37 30.4809 1398.24 31.2897C1399.2 32.0986 1400.39 32.5397 1401.59 32.5397Z" fill="#4C6071"/>
<path d="M49.8833 28.2014C49.8833 25.1131 47.174 22.6866 43.8272 22.6866C40.4804 22.6866 37.8508 25.1866 37.8508 28.2014C37.8508 31.2896 40.5601 33.7161 43.8272 33.7161C47.174 33.7896 49.8833 31.2896 49.8833 28.2014Z" fill="#4C6071"/>
<path d="M89.726 28.2016C89.726 25.7751 87.5744 23.7898 84.9448 23.7898C82.3152 23.7898 80.1637 25.7751 80.1637 28.2016C80.1637 30.628 82.3152 32.6133 84.9448 32.6133C87.6541 32.6133 89.726 30.628 89.726 28.2016Z" fill="#4C6071"/>
<path d="M132.358 28.2013C132.358 25.0396 129.569 22.4661 126.142 22.4661C122.716 22.4661 119.927 25.0396 119.927 28.2013C119.927 31.3631 122.716 33.9366 126.142 33.9366C129.569 34.0102 132.358 31.3631 132.358 28.2013Z" fill="#4C6071"/>
<path d="M170.368 28.2014C170.368 26.6572 169.013 25.3337 167.26 25.3337C165.587 25.3337 164.152 26.5837 164.152 28.2014C164.152 29.7455 165.507 31.069 167.26 31.069C168.933 31.069 170.368 29.7455 170.368 28.2014Z" fill="#4C6071"/>
<path d="M213 28.2014C213 25.8485 210.928 24.0103 208.457 24.0103C205.908 24.0103 203.915 25.922 203.915 28.2014C203.915 30.5544 205.987 32.3926 208.457 32.3926C210.928 32.4662 213 30.5544 213 28.2014Z" fill="#4C6071"/>
<path d="M251.249 28.2014C251.249 27.3926 250.531 26.6573 249.575 26.6573C248.619 26.6573 247.902 27.3191 247.902 28.2014C247.902 29.0103 248.619 29.7456 249.575 29.7456C250.452 29.7456 251.249 29.0838 251.249 28.2014Z" fill="#4C6071"/>
<path d="M296.43 28.2015C296.43 25.2603 293.88 22.9073 290.693 22.9073C287.505 22.9073 284.956 25.2603 284.956 28.2015C284.956 31.1427 287.505 33.4956 290.693 33.4956C293.88 33.4956 296.43 31.1427 296.43 28.2015Z" fill="#4C6071"/>
<path d="M339.062 28.2014C339.062 24.5249 335.795 21.5103 331.891 21.5103C327.906 21.5103 324.639 24.5249 324.639 28.2014C324.639 31.8779 327.906 34.8191 331.891 34.8191C335.875 34.8926 339.062 31.8779 339.062 28.2014Z" fill="#4C6071"/>
<path d="M377.789 28.2016C377.789 25.7751 375.638 23.7898 373.008 23.7898C370.379 23.7898 368.227 25.7751 368.227 28.2016C368.227 30.628 370.379 32.6133 373.008 32.6133C375.638 32.6133 377.789 30.628 377.789 28.2016Z" fill="#4C6071"/>
<path d="M419.624 28.2013C419.624 25.4072 417.154 23.1278 414.126 23.1278C411.098 23.1278 408.628 25.4072 408.628 28.2013C408.628 30.9954 411.098 33.2749 414.126 33.2749C417.154 33.2749 419.624 30.9954 419.624 28.2013Z" fill="#4C6071"/>
<path d="M460.184 28.2015C460.184 25.7015 457.953 23.7162 455.323 23.7162C452.614 23.7162 450.463 25.775 450.463 28.2015C450.463 30.7015 452.694 32.6868 455.323 32.6868C458.033 32.7603 460.184 30.7015 460.184 28.2015Z" fill="#4C6071"/>
<path d="M502.178 28.2015C502.178 25.2603 499.628 22.9073 496.441 22.9073C493.254 22.9073 490.704 25.2603 490.704 28.2015C490.704 31.1427 493.254 33.4956 496.441 33.4956C499.628 33.4956 502.178 31.1427 502.178 28.2015Z" fill="#4C6071"/>
<path d="M543.934 28.2014C543.934 24.9662 541.065 22.3191 537.559 22.3191C534.053 22.3191 531.184 24.9662 531.184 28.2014C531.184 31.4367 534.053 34.0838 537.559 34.0838C541.065 34.0838 543.934 31.4367 543.934 28.2014Z" fill="#4C6071"/>
<path d="M585.29 28.2014C585.29 24.8926 582.342 22.172 578.756 22.172C575.17 22.172 572.222 24.8926 572.222 28.2014C572.222 31.5102 575.17 34.2308 578.756 34.2308C582.342 34.2308 585.29 31.5102 585.29 28.2014Z" fill="#4C6071"/>
<path d="M624.177 28.2014C624.177 25.9955 622.265 24.2308 619.874 24.2308C617.483 24.2308 615.571 25.9955 615.571 28.2014C615.571 30.4073 617.483 32.172 619.874 32.172C622.265 32.172 624.177 30.4073 624.177 28.2014Z" fill="#4C6071"/>
<path d="M661.868 28.2014C661.868 27.7602 661.47 27.4661 661.071 27.4661C660.593 27.4661 660.274 27.8337 660.274 28.2014C660.274 28.6425 660.673 28.9367 661.071 28.9367C661.47 29.0102 661.868 28.6425 661.868 28.2014Z" fill="#4C6071"/>
<path d="M704.261 28.2013C704.261 27.1719 703.305 26.2896 702.189 26.2896C701.074 26.2896 700.117 27.1719 700.117 28.2013C700.117 29.2307 701.074 30.1131 702.189 30.1131C703.305 30.1131 704.261 29.2307 704.261 28.2013Z" fill="#4C6071"/>
<path d="M748.407 28.2015C748.407 25.6279 746.096 23.4956 743.307 23.4956C740.518 23.4956 738.207 25.6279 738.207 28.2015C738.207 30.775 740.518 32.9074 743.307 32.9074C746.096 32.9074 748.407 30.775 748.407 28.2015Z" fill="#4C6071"/>
<path d="M786.178 28.2014C786.178 27.3191 785.381 26.6573 784.504 26.6573C783.548 26.6573 782.831 27.3926 782.831 28.2014C782.831 29.0838 783.628 29.7456 784.504 29.7456C785.381 29.8191 786.178 29.0838 786.178 28.2014Z" fill="#4C6071"/>
<path d="M827.933 28.2015C827.933 27.0251 826.897 26.0692 825.622 26.0692C824.347 26.0692 823.311 27.0251 823.311 28.2015C823.311 29.378 824.347 30.3339 825.622 30.3339C826.897 30.3339 827.933 29.378 827.933 28.2015Z" fill="#4C6071"/>
<path d="M872.716 28.2014C872.716 25.1866 870.007 22.6866 866.74 22.6866C863.473 22.6866 860.763 25.1866 860.763 28.2014C860.763 31.2161 863.473 33.7161 866.74 33.7161C870.007 33.7161 872.716 31.2161 872.716 28.2014Z" fill="#4C6071"/>
<path d="M908.734 28.2014C908.734 27.7602 908.336 27.4661 907.937 27.4661C907.459 27.4661 907.14 27.8337 907.14 28.2014C907.14 28.6425 907.539 28.9367 907.937 28.9367C908.336 28.9367 908.734 28.6425 908.734 28.2014Z" fill="#4C6071"/>
<path d="M954.075 28.2014C954.075 25.6279 951.844 23.5691 949.055 23.5691C946.266 23.5691 944.035 25.6279 944.035 28.2014C944.035 30.775 946.266 32.8338 949.055 32.8338C951.764 32.8338 954.075 30.775 954.075 28.2014Z" fill="#4C6071"/>
<path d="M991.767 28.2014C991.767 27.3926 991.049 26.7308 990.173 26.7308C989.296 26.7308 988.579 27.3926 988.579 28.2014C988.579 29.0102 989.296 29.672 990.173 29.672C991.049 29.672 991.767 29.0102 991.767 28.2014Z" fill="#4C6071"/>
<path d="M1035.19 28.2015C1035.19 26.2163 1033.44 24.5986 1031.29 24.5986C1029.14 24.5986 1027.39 26.2163 1027.39 28.2015C1027.39 30.1868 1029.14 31.8045 1031.29 31.8045C1033.44 31.8045 1035.19 30.1868 1035.19 28.2015Z" fill="#4C6071"/>
<path d="M1076.87 28.2014C1076.87 25.922 1074.88 24.0837 1072.41 24.0837C1069.94 24.0837 1067.95 25.922 1067.95 28.2014C1067.95 30.4808 1069.94 32.319 1072.41 32.319C1074.88 32.319 1076.87 30.4808 1076.87 28.2014Z" fill="#4C6071"/>
<path d="M1118.07 28.2014C1118.07 25.922 1116.08 24.0837 1113.61 24.0837C1111.14 24.0837 1109.14 25.922 1109.14 28.2014C1109.14 30.4808 1111.14 32.319 1113.61 32.319C1116.08 32.319 1118.07 30.4808 1118.07 28.2014Z" fill="#4C6071"/>
<path d="M1157.03 28.2015C1157.03 27.0251 1156 26.0692 1154.72 26.0692C1153.45 26.0692 1152.41 27.0251 1152.41 28.2015C1152.41 29.378 1153.45 30.3339 1154.72 30.3339C1156 30.3339 1157.03 29.378 1157.03 28.2015Z" fill="#4C6071"/>
<path d="M1202.3 28.2014C1202.3 24.9662 1199.43 22.3191 1195.92 22.3191C1192.41 22.3191 1189.55 24.9662 1189.55 28.2014C1189.55 31.4367 1192.41 34.0838 1195.92 34.0838C1199.43 34.0838 1202.3 31.4367 1202.3 28.2014Z" fill="#4C6071"/>
<path d="M1239.27 28.2015C1239.27 27.0986 1238.31 26.1427 1237.04 26.1427C1235.84 26.1427 1234.81 27.0986 1234.81 28.2015C1234.81 29.3045 1235.84 30.2603 1237.04 30.2603C1238.23 30.2603 1239.27 29.378 1239.27 28.2015Z" fill="#4C6071"/>
<path d="M1281.26 28.2014C1281.26 26.6572 1279.91 25.3337 1278.16 25.3337C1276.48 25.3337 1275.05 26.5837 1275.05 28.2014C1275.05 29.7455 1276.4 31.069 1278.16 31.069C1279.91 31.069 1281.26 29.819 1281.26 28.2014Z" fill="#4C6071"/>
<path d="M1326.29 28.2014C1326.29 24.672 1323.18 21.8043 1319.35 21.8043C1315.53 21.8043 1312.42 24.672 1312.42 28.2014C1312.42 31.7308 1315.53 34.5985 1319.35 34.5985C1323.18 34.5985 1326.29 31.7308 1326.29 28.2014Z" fill="#4C6071"/>
<path d="M1365.41 28.2015C1365.41 25.7015 1363.18 23.6427 1360.47 23.6427C1357.76 23.6427 1355.53 25.7015 1355.53 28.2015C1355.53 30.7015 1357.76 32.7604 1360.47 32.7604C1363.18 32.7604 1365.41 30.7015 1365.41 28.2015Z" fill="#4C6071"/>
<path d="M2.70925 55.3677C3.42642 55.3677 4.14361 55.0735 4.62172 54.6324C5.09984 54.1912 5.41858 53.5294 5.41858 52.8676C5.41858 52.2059 5.09984 51.5441 4.62172 51.103C4.14361 50.6618 3.42642 50.3677 2.70925 50.3677C1.99208 50.3677 1.27499 50.6618 0.796876 51.103C0.318762 51.5441 2.00019e-05 52.2059 2.00019e-05 52.8676C2.00019e-05 53.5294 0.318762 54.1912 0.796876 54.6324C1.27499 55.1471 1.99208 55.3677 2.70925 55.3677Z" fill="#4C6071"/>
<path d="M1401.59 13.5294C1403.5 13.5294 1405.41 12.7941 1406.77 11.5441C1408.2 10.2941 1409 8.52937 1409 6.76467C1409 4.99996 1408.2 3.23526 1406.85 1.98526C1405.49 0.735258 1403.58 0 1401.67 0C1399.76 0 1397.84 0.735258 1396.41 1.98526C1395.06 3.23526 1394.26 4.99996 1394.26 6.76467C1394.26 8.52937 1395.06 10.2941 1396.41 11.6176C1397.76 12.7941 1399.68 13.5294 1401.59 13.5294Z" fill="#4C6071"/>
</g>
<defs>
<clipPath id="clip0_3_51">
<rect width="1440" height="7248" fill="white" transform="translate(-8 -2290)"/>
</clipPath>
</defs>
</svg>
