<svg width="1440" height="60" viewBox="0 0 1440 60" fill="none" xmlns="http://www.w3.org/2000/svg">
<path d="M1420.86 49.0467C1420.86 43.6265 1425.15 39.2227 1430.43 39.2227C1435.71 39.2227 1440 43.6265 1440 49.0467C1440 54.4669 1435.71 58.8708 1430.43 58.8708C1425.15 58.8708 1420.86 54.4669 1420.86 49.0467Z" fill="#4C6071"/>
<path d="M1366.86 49.0467C1366.86 45.2074 1369.94 42.0457 1373.68 42.0457C1377.42 42.0457 1380.49 45.2074 1380.49 49.0467C1380.49 52.886 1377.42 56.0478 1373.68 56.0478C1369.83 55.9349 1366.86 52.886 1366.86 49.0467Z" fill="#4C6071"/>
<path d="M1311.75 49.0467C1311.75 46.2237 1314.06 43.8524 1316.81 43.8524C1319.56 43.8524 1321.87 46.2237 1321.87 49.0467C1321.87 51.8697 1319.56 54.241 1316.81 54.241C1314.06 54.241 1311.75 51.8697 1311.75 49.0467Z" fill="#4C6071"/>
<path d="M1249.39 49.0467C1249.39 42.949 1254.23 38.0935 1260.05 38.0935C1265.99 38.0935 1270.72 43.062 1270.72 49.0467C1270.72 55.1444 1265.88 60 1260.05 60C1254.12 60 1249.39 55.0315 1249.39 49.0467Z" fill="#4C6071"/>
<path d="M1201.43 49.0467C1201.43 48.0304 1202.2 47.24 1203.19 47.24C1204.18 47.24 1204.95 48.0304 1204.95 49.0467C1204.95 50.063 1204.18 50.8535 1203.19 50.8535C1202.2 50.8535 1201.43 50.063 1201.43 49.0467Z" fill="#4C6071"/>
<path d="M1137.2 49.0468C1137.2 43.7395 1141.37 39.5615 1146.43 39.5615C1151.6 39.5615 1155.67 43.8524 1155.67 49.0468C1155.67 54.354 1151.49 58.5321 1146.43 58.5321C1141.37 58.5321 1137.2 54.2411 1137.2 49.0468Z" fill="#4C6071"/>
<path d="M1086.38 49.0467C1086.38 47.1271 1087.81 45.6591 1089.68 45.6591C1091.55 45.6591 1092.98 47.1271 1092.98 49.0467C1092.98 50.9664 1091.55 52.4343 1089.68 52.4343C1087.81 52.4343 1086.38 50.8534 1086.38 49.0467Z" fill="#4C6071"/>
<path d="M1024.34 49.0467C1024.34 44.1912 1028.19 40.3519 1032.81 40.3519C1037.54 40.3519 1041.28 44.3041 1041.28 49.0467C1041.28 53.9023 1037.43 57.7416 1032.81 57.7416C1028.19 57.7416 1024.34 53.9023 1024.34 49.0467Z" fill="#4C6071"/>
<path d="M969.129 49.0467C969.129 45.0945 972.319 41.8199 976.169 41.8199C980.018 41.8199 983.208 44.9816 983.208 49.0467C983.208 52.9989 980.128 56.2736 976.169 56.2736C972.209 56.1607 969.129 52.9989 969.129 49.0467Z" fill="#4C6071"/>
<path d="M916.994 49.0467C916.994 47.8046 917.983 46.7883 919.193 46.7883C920.403 46.7883 921.393 47.8046 921.393 49.0467C921.393 50.2888 920.403 51.3051 919.193 51.3051C917.983 51.3051 916.994 50.2888 916.994 49.0467Z" fill="#4C6071"/>
<path d="M861.228 49.0468C861.228 48.3692 861.778 47.8047 862.438 47.8047C863.097 47.8047 863.647 48.3692 863.647 49.0468C863.647 49.7243 863.097 50.2889 862.438 50.2889C861.778 50.2889 861.228 49.7243 861.228 49.0468Z" fill="#4C6071"/>
<path d="M795.564 49.0467C795.564 43.2878 800.073 38.5451 805.683 38.5451C811.292 38.5451 815.912 43.1749 815.912 49.0467C815.912 54.8056 811.402 59.4354 805.683 59.4354C800.073 59.4354 795.564 54.8056 795.564 49.0467Z" fill="#4C6071"/>
<path d="M739.358 49.0467C739.358 43.6265 743.648 39.2227 748.928 39.2227C754.207 39.2227 758.497 43.6265 758.497 49.0467C758.497 54.4669 754.207 58.8708 748.928 58.8708C743.648 58.7579 739.358 54.4669 739.358 49.0467Z" fill="#4C6071"/>
<path d="M683.813 49.0467C683.813 44.3041 687.553 40.4648 692.172 40.4648C696.792 40.4648 700.532 44.3041 700.532 49.0467C700.532 53.7894 696.792 57.6287 692.172 57.6287C687.553 57.5158 683.813 53.6764 683.813 49.0467Z" fill="#4C6071"/>
<path d="M632.117 49.0467C632.117 47.24 633.547 45.772 635.307 45.772C637.067 45.772 638.497 47.24 638.497 49.0467C638.497 50.8534 637.067 52.3214 635.307 52.3214C633.547 52.2085 632.117 50.7405 632.117 49.0467Z" fill="#4C6071"/>
<path d="M570.962 49.0467C570.962 44.7558 574.372 41.3682 578.442 41.3682C582.621 41.3682 585.921 44.8687 585.921 49.0467C585.921 53.3377 582.511 56.7254 578.442 56.7254C574.372 56.7254 570.962 53.2248 570.962 49.0467Z" fill="#4C6071"/>
<path d="M516.077 49.0467C516.077 45.772 518.607 43.1749 521.797 43.1749C524.986 43.1749 527.516 45.772 527.516 49.0467C527.516 52.3214 524.986 54.9185 521.797 54.9185C518.607 54.9185 516.077 52.2084 516.077 49.0467Z" fill="#4C6071"/>
<path d="M456.242 49.0467C456.242 44.1911 460.092 40.2389 464.821 40.2389C469.551 40.2389 473.4 44.1911 473.4 49.0467C473.4 53.9023 469.551 57.8545 464.821 57.8545C460.202 57.8545 456.242 53.9023 456.242 49.0467Z" fill="#4C6071"/>
<path d="M405.316 49.0467C405.316 47.4658 406.636 46.1108 408.176 46.1108C409.716 46.1108 411.036 47.4658 411.036 49.0467C411.036 50.6276 409.716 51.9827 408.176 51.9827C406.526 51.9827 405.316 50.6276 405.316 49.0467Z" fill="#4C6071"/>
<path d="M340.972 49.0467C340.972 43.1749 345.591 38.4323 351.311 38.4323C357.03 38.4323 361.65 43.1749 361.65 49.0467C361.65 54.9186 357.03 59.6612 351.311 59.6612C345.701 59.6612 340.972 54.9186 340.972 49.0467Z" fill="#4C6071"/>
<path d="M292.356 49.0467C292.356 47.8046 293.345 46.7883 294.555 46.7883C295.765 46.7883 296.755 47.8046 296.755 49.0467C296.755 50.2888 295.765 51.3051 294.555 51.3051C293.345 51.1922 292.356 50.2888 292.356 49.0467Z" fill="#4C6071"/>
<path d="M234.28 49.0467C234.28 47.1271 235.82 45.4333 237.8 45.4333C239.67 45.4333 241.32 47.0141 241.32 49.0467C241.32 50.9663 239.78 52.5473 237.8 52.5473C235.82 52.5473 234.28 50.9663 234.28 49.0467Z" fill="#4C6071"/>
<path d="M175.105 49.0467C175.105 45.772 177.745 43.062 180.935 43.062C184.125 43.062 186.764 45.772 186.764 49.0467C186.764 52.3214 184.125 55.0315 180.935 55.0315C177.745 55.0315 175.105 52.3214 175.105 49.0467Z" fill="#4C6071"/>
<path d="M123.08 49.0467C123.08 48.3692 123.63 47.9175 124.179 47.9175C124.839 47.9175 125.279 48.4821 125.279 49.0467C125.279 49.7242 124.729 50.1759 124.179 50.1759C123.52 50.1759 123.08 49.7242 123.08 49.0467Z" fill="#4C6071"/>
<path d="M58.9551 49.0467C58.9551 44.1912 62.8048 40.3519 67.4244 40.3519C72.154 40.3519 75.8937 44.3041 75.8937 49.0467C75.8937 53.9023 72.044 57.7416 67.4244 57.7416C62.6948 57.7416 58.9551 53.7894 58.9551 49.0467Z" fill="#4C6071"/>
<path d="M0 49.0467C0 43.0619 4.72961 38.2064 10.5591 38.2064C16.3886 38.2064 21.1182 43.0619 21.1182 49.0467C21.1182 55.0315 16.3886 59.8871 10.5591 59.8871C4.72961 59.8871 0 55.0315 0 49.0467Z" fill="#4C6071"/>
<path d="M1426.14 10.2757C1426.14 7.90439 1428.01 5.87187 1430.43 5.87187C1432.74 5.87187 1434.72 7.79147 1434.72 10.2757C1434.72 12.647 1432.85 14.6796 1430.43 14.6796C1428.12 14.6796 1426.14 12.647 1426.14 10.2757Z" fill="#4C6071"/>
<path d="M1367.3 10.2757C1367.3 6.66228 1370.16 3.83926 1373.57 3.83926C1377.09 3.83926 1379.83 6.7752 1379.83 10.2757C1379.83 13.8892 1376.98 16.7122 1373.57 16.7122C1370.16 16.8251 1367.3 13.8892 1367.3 10.2757Z" fill="#4C6071"/>
<path d="M1314.5 10.2757C1314.5 9.03358 1315.49 7.9044 1316.81 7.9044C1318.13 7.9044 1319.12 8.92066 1319.12 10.2757C1319.12 11.5178 1318.13 12.6471 1316.81 12.6471C1315.6 12.6471 1314.5 11.6307 1314.5 10.2757Z" fill="#4C6071"/>
<path d="M1252.14 10.2757C1252.14 5.75894 1255.66 2.14548 1260.05 2.14548C1264.45 2.14548 1267.97 5.75894 1267.97 10.2757C1267.97 14.7926 1264.45 18.406 1260.05 18.406C1255.66 18.406 1252.14 14.7926 1252.14 10.2757Z" fill="#4C6071"/>
<path d="M1193.29 10.2757C1193.29 4.6297 1197.8 0 1203.19 0C1208.69 0 1213.2 4.6297 1213.2 10.2757C1213.2 15.9217 1208.69 20.4385 1203.19 20.4385C1197.69 20.5514 1193.29 15.9217 1193.29 10.2757Z" fill="#4C6071"/>
<path d="M1139.83 10.2757C1139.83 6.54936 1142.8 3.50052 1146.43 3.50052C1150.06 3.50052 1153.03 6.54936 1153.03 10.2757C1153.03 14.0021 1150.06 17.0509 1146.43 17.0509C1142.8 17.0509 1139.83 14.0021 1139.83 10.2757Z" fill="#4C6071"/>
<path d="M1082.09 10.2757C1082.09 5.98471 1085.5 2.48422 1089.68 2.48422C1093.86 2.48422 1097.27 5.98471 1097.27 10.2757C1097.27 14.5666 1093.86 18.0672 1089.68 18.0672C1085.5 18.0672 1082.09 14.5666 1082.09 10.2757Z" fill="#4C6071"/>
<path d="M1026.1 10.2757C1026.1 6.43641 1029.18 3.38759 1032.81 3.38759C1036.55 3.38759 1039.52 6.54933 1039.52 10.2757C1039.52 14.115 1036.44 17.1639 1032.81 17.1639C1029.07 17.2768 1026.1 14.115 1026.1 10.2757Z" fill="#4C6071"/>
<path d="M968.139 10.2757C968.139 5.75894 971.659 2.14548 976.058 2.14548C980.458 2.14548 983.978 5.75894 983.978 10.2757C983.978 14.7926 980.458 18.406 976.058 18.406C971.659 18.406 968.139 14.7926 968.139 10.2757Z" fill="#4C6071"/>
<path d="M910.504 10.2757C910.504 5.30724 914.464 1.24211 919.303 1.24211C924.143 1.24211 928.103 5.30724 928.103 10.2757C928.103 15.2442 924.143 19.3093 919.303 19.3093C914.464 19.3093 910.504 15.2442 910.504 10.2757Z" fill="#4C6071"/>
<path d="M853.419 10.2757C853.419 5.1943 857.488 1.01624 862.438 1.01624C867.388 1.01624 871.457 5.1943 871.457 10.2757C871.457 15.3571 867.388 19.5352 862.438 19.5352C857.488 19.5352 853.419 15.3571 853.419 10.2757Z" fill="#4C6071"/>
<path d="M799.743 10.2757C799.743 6.88811 802.383 4.17807 805.683 4.17807C808.982 4.17807 811.622 6.88811 811.622 10.2757C811.622 13.6633 808.982 16.3734 805.683 16.3734C802.383 16.3734 799.743 13.6633 799.743 10.2757Z" fill="#4C6071"/>
<path d="M747.718 10.2757C747.718 9.5982 748.267 9.14651 748.817 9.14651C749.477 9.14651 749.917 9.71112 749.917 10.2757C749.917 10.9532 749.367 11.4049 748.817 11.4049C748.267 11.5178 747.718 10.9532 747.718 10.2757Z" fill="#4C6071"/>
<path d="M689.203 10.2757C689.203 8.69486 690.522 7.33984 692.062 7.33984C693.602 7.33984 694.922 8.69486 694.922 10.2757C694.922 11.8566 693.602 13.2117 692.062 13.2117C690.522 13.2117 689.203 11.8566 689.203 10.2757Z" fill="#4C6071"/>
<path d="M628.268 10.2758C628.268 6.32355 631.457 3.0489 635.307 3.0489C639.157 3.0489 642.346 6.32355 642.346 10.2758C642.346 14.228 639.157 17.5027 635.307 17.5027C631.457 17.5027 628.268 14.228 628.268 10.2758Z" fill="#4C6071"/>
<path d="M576.132 10.2757C576.132 8.92066 577.232 7.9044 578.442 7.9044C579.762 7.9044 580.752 9.03358 580.752 10.2757C580.752 11.6307 579.652 12.6471 578.442 12.6471C577.232 12.76 576.132 11.6307 576.132 10.2757Z" fill="#4C6071"/>
<path d="M518.497 10.2757C518.497 8.46896 519.927 7.00104 521.687 7.00104C523.446 7.00104 524.876 8.46896 524.876 10.2757C524.876 12.0824 523.446 13.5504 521.687 13.5504C519.927 13.5504 518.497 12.0824 518.497 10.2757Z" fill="#4C6071"/>
<path d="M456.682 10.2757C456.682 5.64602 460.422 1.80673 464.931 1.80673C469.441 1.80673 473.181 5.64602 473.181 10.2757C473.181 14.9055 469.441 18.7448 464.931 18.7448C460.422 18.7448 456.682 14.9055 456.682 10.2757Z" fill="#4C6071"/>
<path d="M406.966 10.2757C406.966 9.5982 407.516 9.14651 408.066 9.14651C408.725 9.14651 409.165 9.71112 409.165 10.2757C409.165 10.9532 408.615 11.4049 408.066 11.4049C407.516 11.4049 406.966 10.9532 406.966 10.2757Z" fill="#4C6071"/>
<path d="M344.381 10.2757C344.381 6.32353 347.461 3.16177 351.311 3.16177C355.16 3.16177 358.24 6.32353 358.24 10.2757C358.24 14.2279 355.16 17.3897 351.311 17.3897C347.571 17.3897 344.381 14.2279 344.381 10.2757Z" fill="#4C6071"/>
<path d="M292.356 10.2757C292.356 9.03355 293.346 8.01727 294.555 8.01727C295.765 8.01727 296.755 9.03355 296.755 10.2757C296.755 11.5178 295.765 12.5341 294.555 12.5341C293.346 12.5341 292.356 11.5178 292.356 10.2757Z" fill="#4C6071"/>
<path d="M232.411 10.2757C232.411 7.22689 234.83 4.74269 237.8 4.74269C240.77 4.74269 243.19 7.22689 243.19 10.2757C243.19 13.3246 240.77 15.8089 237.8 15.8089C234.83 15.8089 232.411 13.3246 232.411 10.2757Z" fill="#4C6071"/>
<path d="M174.885 10.2757C174.885 6.77517 177.635 3.95219 181.045 3.95219C184.455 3.95219 187.204 6.77517 187.204 10.2757C187.204 13.7762 184.455 16.5993 181.045 16.5993C177.635 16.5993 174.885 13.7762 174.885 10.2757Z" fill="#4C6071"/>
<path d="M118.02 10.2757C118.02 6.77517 120.77 3.95219 124.18 3.95219C127.589 3.95219 130.339 6.77517 130.339 10.2757C130.339 13.7762 127.589 16.5993 124.18 16.5993C120.77 16.5993 118.02 13.7762 118.02 10.2757Z" fill="#4C6071"/>
<path d="M64.2347 10.2757C64.2347 8.46896 65.6646 7.00104 67.4244 7.00104C69.1843 7.00104 70.6142 8.46896 70.6142 10.2757C70.6142 12.0824 69.1843 13.5504 67.4244 13.5504C65.6646 13.5504 64.2347 12.0824 64.2347 10.2757Z" fill="#4C6071"/>
<path d="M1.75932 10.2757C1.75932 5.30724 5.71899 1.24211 10.5586 1.24211C15.3982 1.24211 19.3579 5.30724 19.3579 10.2757C19.3579 15.2442 15.3982 19.3093 10.5586 19.3093C5.71899 19.3093 1.75932 15.2442 1.75932 10.2757Z" fill="#4C6071"/>
</svg>
